<svg version="1.1" viewBox="0.0 0.0 800.0 600.0" fill="none" stroke="none" stroke-linecap="square" stroke-miterlimit="10" xmlns:xlink="http://www.w3.org/1999/xlink" xmlns="http://www.w3.org/2000/svg"><clipPath id="p.0"><path d="m0 0l800.0 0l0 600.0l-800.0 0l0 -600.0z" clip-rule="nonzero"/></clipPath><g clip-path="url(#p.0)"><path fill="#000000" fill-opacity="0.0" d="m0 0l800.0 0l0 600.0l-800.0 0z" fill-rule="evenodd"/><path fill="#000000" fill-opacity="0.0" d="m131.08661 171.58005l494.48822 0l0 44.755905l-494.48822 0z" fill-rule="evenodd"/><path fill="#000000" d="m179.28973 201.86113l0 -26.609375l3.203125 0l0 26.609375q0 3.828125 -1.484375 6.453125q-1.484375 2.625 -4.078125 4.0q-2.59375 1.359375 -5.875 1.359375q-3.40625 0 -6.0 -1.1875q-2.59375 -1.203125 -4.03125 -3.640625q-1.421875 -2.453125 -1.421875 -6.15625l3.203125 0q0 2.734375 0.96875 4.578125q0.984375 1.828125 2.828125 2.75q1.859375 0.90625 4.453125 0.90625q2.296875 0 4.15625 -1.015625q1.859375 -1.015625 2.96875 -3.046875q1.109375 -2.03125 1.109375 -5.0zm10.184631 -2.375l0 -0.828125q0 -3.078125 0.890625 -5.671875q0.90625 -2.609375 2.546875 -4.515625q1.640625 -1.90625 3.953125 -2.953125q2.3125 -1.046875 5.15625 -1.046875q2.859375 0 5.1875 1.046875q2.34375 1.046875 3.984375 2.953125q1.65625 1.90625 2.53125 4.515625q0.890625 2.59375 0.890625 5.671875l0 0.828125q0 3.078125 -0.890625 5.671875q-0.875 2.578125 -2.53125 4.5q-1.640625 1.90625 -3.953125 2.96875q-2.296875 1.046875 -5.171875 1.046875q-2.859375 0 -5.1875 -1.046875q-2.3125 -1.0625 -3.96875 -2.96875q-1.640625 -1.921875 -2.546875 -4.5q-0.890625 -2.59375 -0.890625 -5.671875zm3.125 -0.828125l0 0.828125q0 2.3125 0.609375 4.390625q0.609375 2.0625 1.8125 3.671875q1.21875 1.59375 2.984375 2.53125q1.78125 0.921875 4.0625 0.921875q2.296875 0 4.046875 -0.921875q1.765625 -0.9375 2.953125 -2.53125q1.203125 -1.609375 1.8125 -3.671875q0.625 -2.078125 0.625 -4.390625l0 -0.828125q0 -2.296875 -0.625 -4.34375q-0.609375 -2.0625 -1.828125 -3.671875q-1.203125 -1.625 -2.96875 -2.5625q-1.765625 -0.9375 -4.0625 -0.9375q-2.265625 0 -4.03125 0.9375q-1.75 0.9375 -2.96875 2.5625q-1.203125 1.609375 -1.8125 3.671875q-0.609375 2.046875 -0.609375 4.34375zm31.580414 -7.65625l0 22.15625l-3.09375 0l0 -28.171875l2.96875 0l0.125 6.015625zm-0.671875 6.328125l-1.390625 -0.78125q0.140625 -2.5 1.0 -4.6875q0.859375 -2.1875 2.328125 -3.84375q1.46875 -1.671875 3.46875 -2.609375q2.015625 -0.9375 4.4375 -0.9375q2.109375 0 3.765625 0.578125q1.671875 0.5625 2.828125 1.796875q1.15625 1.234375 1.765625 3.203125q0.625 1.96875 0.625 4.75l0 18.359375l-3.125 0l0 -18.390625q0 -2.890625 -0.8125 -4.53125q-0.8125 -1.65625 -2.296875 -2.359375q-1.484375 -0.703125 -3.515625 -0.703125q-2.234375 0 -3.921875 0.984375q-1.671875 0.96875 -2.8125 2.515625q-1.125 1.546875 -1.734375 3.3125q-0.59375 1.75 -0.609375 3.34375zm44.023193 10.78125l0 -14.53125q0 -2.015625 -0.828125 -3.46875q-0.828125 -1.453125 -2.453125 -2.234375q-1.609375 -0.78125 -3.984375 -0.78125q-2.1875 0 -3.890625 0.765625q-1.7031403 0.765625 -2.6875153 2.0625q-0.96875 1.28125 -0.96875 2.84375l-3.09375 -0.03125q0 -1.578125 0.765625 -3.0625q0.765625 -1.484375 2.1875 -2.65625q1.4375 -1.171875 3.421875 -1.859375q2.0000153 -0.6875 4.4218903 -0.6875q3.0 0 5.296875 1.015625q2.3125 1.0 3.625 3.03125q1.3125 2.03125 1.3125 5.109375l0 13.625q0 1.453125 0.21875 3.015625q0.234375 1.5625 0.640625 2.546875l0 0.34375l-3.328125 0q-0.3125 -0.9375 -0.484375 -2.359375q-0.171875 -1.421875 -0.171875 -2.6875zm0.734375 -11.359375l0.046875 2.390625l-6.09375 0q-2.390625 0 -4.28125 0.4375q-1.890625 0.421875 -3.1875153 1.234375q-1.296875 0.8125 -2.0 1.96875q-0.6875 1.15625 -0.6875 2.609375q0 1.515625 0.75 2.765625q0.765625 1.25 2.1875 1.984375q1.4375153 0.71875 3.3906403 0.71875q2.578125 0 4.5625 -0.9375q2.0 -0.953125 3.296875 -2.515625q1.3125 -1.5625 1.75 -3.421875l1.359375 1.796875q-0.34375 1.28125 -1.25 2.671875q-0.890625 1.375 -2.3125 2.5625q-1.40625 1.171875 -3.359375 1.921875q-1.9375 0.734375 -4.40625 0.734375q-2.7343903 0 -4.7968903 -1.046875q-2.046875 -1.0625 -3.171875 -2.859375q-1.125 -1.8125 -1.125 -4.109375q0 -2.0625 0.890625 -3.703125q0.890625 -1.65625 2.546875 -2.8125q1.671875 -1.171875 4.0468903 -1.78125q2.390625 -0.609375 5.359375 -0.609375l6.484375 0zm21.403442 -11.765625l0 2.546875l-14.140625 0l0 -2.546875l14.140625 0zm-8.953125 -7.234375l3.125 0l0 28.53125q0 1.953125 0.5 2.953125q0.515625 1.0 1.359375 1.328125q0.84375 0.328125 1.8125 0.328125q0.703125 0 1.328125 -0.09375q0.640625 -0.09375 1.1875 -0.171875l0.140625 2.640625q-0.578125 0.171875 -1.5 0.28125q-0.921875 0.125 -1.84375 0.125q-1.796875 0 -3.171875 -0.671875q-1.375 -0.671875 -2.15625 -2.28125q-0.78125 -1.625 -0.78125 -4.4375l0 -28.53125zm18.53479 -4.59375l0 40.0l-3.09375 0l0 -40.0l3.09375 0zm-0.671875 24.171875l-1.390625 -0.78125q0.140625 -2.5 1.0 -4.6875q0.859375 -2.1875 2.328125 -3.84375q1.46875 -1.671875 3.46875 -2.609375q2.015625 -0.9375 4.4375 -0.9375q2.109375 0 3.765625 0.578125q1.671875 0.5625 2.828125 1.796875q1.15625 1.234375 1.765625 3.203125q0.625 1.96875 0.625 4.75l0 18.359375l-3.125 0l0 -18.390625q0 -2.890625 -0.8125 -4.53125q-0.8125 -1.65625 -2.296875 -2.359375q-1.484375 -0.703125 -3.515625 -0.703125q-2.234375 0 -3.921875 0.984375q-1.671875 0.96875 -2.8125 2.515625q-1.125 1.546875 -1.734375 3.3125q-0.59375 1.75 -0.609375 3.34375zm43.99716 10.78125l0 -14.53125q0 -2.015625 -0.828125 -3.46875q-0.828125 -1.453125 -2.453125 -2.234375q-1.609375 -0.78125 -3.984375 -0.78125q-2.1875 0 -3.890625 0.765625q-1.703125 0.765625 -2.6875 2.0625q-0.96875 1.28125 -0.96875 2.84375l-3.09375 -0.03125q0 -1.578125 0.765625 -3.0625q0.765625 -1.484375 2.1875 -2.65625q1.4375 -1.171875 3.421875 -1.859375q2.0 -0.6875 4.421875 -0.6875q3.0 0 5.296875 1.015625q2.3125 1.0 3.625 3.03125q1.3125 2.03125 1.3125 5.109375l0 13.625q0 1.453125 0.21875 3.015625q0.234375 1.5625 0.640625 2.546875l0 0.34375l-3.328125 0q-0.3125 -0.9375 -0.484375 -2.359375q-0.171875 -1.421875 -0.171875 -2.6875zm0.734375 -11.359375l0.046875 2.390625l-6.09375 0q-2.390625 0 -4.28125 0.4375q-1.890625 0.421875 -3.1875 1.234375q-1.296875 0.8125 -2.0 1.96875q-0.6875 1.15625 -0.6875 2.609375q0 1.515625 0.75 2.765625q0.765625 1.25 2.1875 1.984375q1.4375 0.71875 3.390625 0.71875q2.578125 0 4.5625 -0.9375q2.0 -0.953125 3.296875 -2.515625q1.3125 -1.5625 1.75 -3.421875l1.359375 1.796875q-0.34375 1.28125 -1.25 2.671875q-0.890625 1.375 -2.3125 2.5625q-1.40625 1.171875 -3.359375 1.921875q-1.9375 0.734375 -4.40625 0.734375q-2.734375 0 -4.796875 -1.046875q-2.046875 -1.0625 -3.171875 -2.859375q-1.125 -1.8125 -1.125 -4.109375q0 -2.0625 0.890625 -3.703125q0.890625 -1.65625 2.546875 -2.8125q1.671875 -1.171875 4.046875 -1.78125q2.390625 -0.609375 5.359375 -0.609375l6.484375 0zm13.825317 -5.75l0 22.15625l-3.09375 0l0 -28.171875l2.96875 0l0.125 6.015625zm-0.671875 6.328125l-1.390625 -0.78125q0.140625 -2.5 1.0 -4.6875q0.859375 -2.1875 2.328125 -3.84375q1.46875 -1.671875 3.46875 -2.609375q2.015625 -0.9375 4.4375 -0.9375q2.109375 0 3.765625 0.578125q1.671875 0.5625 2.828125 1.796875q1.15625 1.234375 1.765625 3.203125q0.625 1.96875 0.625 4.75l0 18.359375l-3.125 0l0 -18.390625q0 -2.890625 -0.8125 -4.53125q-0.8125 -1.65625 -2.296875 -2.359375q-1.484375 -0.703125 -3.515625 -0.703125q-2.234375 0 -3.921875 0.984375q-1.671875 0.96875 -2.8125 2.515625q-1.125 1.546875 -1.734375 3.3125q-0.59375 1.75 -0.609375 3.34375zm64.23547 3.984375l3.203125 0q-0.390625 3.84375 -2.109375 6.609375q-1.703125 2.765625 -4.6875 4.265625q-2.96875 1.484375 -7.140625 1.484375q-3.21875 0 -5.859375 -1.21875q-2.625 -1.21875 -4.5 -3.484375q-1.875 -2.265625 -2.890625 -5.421875q-1.015625 -3.15625 -1.015625 -6.984375l0 -4.734375q0 -3.859375 1.015625 -6.984375q1.015625 -3.140625 2.90625 -5.40625q1.90625 -2.265625 4.578125 -3.484375q2.671875 -1.234375 5.984375 -1.234375q4.0625 0 6.984375 1.484375q2.921875 1.46875 4.625 4.234375q1.71875 2.75 2.109375 6.65625l-3.203125 0q-0.375 -3.078125 -1.625 -5.203125q-1.234375 -2.140625 -3.421875 -3.265625q-2.1875 -1.140625 -5.46875 -1.140625q-2.640625 0 -4.734375 1.015625q-2.09375 1.015625 -3.5625 2.90625q-1.453125 1.890625 -2.21875 4.515625q-0.765625 2.625 -0.765625 5.859375l0 4.78125q0 3.109375 0.734375 5.734375q0.75 2.625 2.15625 4.5625q1.40625 1.921875 3.453125 3.0q2.0625 1.0625 4.71875 1.0625q3.359375 0 5.59375 -1.0625q2.25 -1.078125 3.5 -3.21875q1.25 -2.15625 1.640625 -5.328125zm27.413269 6.796875l0 -14.53125q0 -2.015625 -0.828125 -3.46875q-0.828125 -1.453125 -2.453125 -2.234375q-1.609375 -0.78125 -3.984375 -0.78125q-2.1875 0 -3.890625 0.765625q-1.703125 0.765625 -2.6875 2.0625q-0.96875 1.28125 -0.96875 2.84375l-3.09375 -0.03125q0 -1.578125 0.765625 -3.0625q0.765625 -1.484375 2.1875 -2.65625q1.4375 -1.171875 3.421875 -1.859375q2.0 -0.6875 4.421875 -0.6875q3.0 0 5.296875 1.015625q2.3125 1.0 3.625 3.03125q1.3125 2.03125 1.3125 5.109375l0 13.625q0 1.453125 0.21875 3.015625q0.234375 1.5625 0.640625 2.546875l0 0.34375l-3.328125 0q-0.3125 -0.9375 -0.484375 -2.359375q-0.171875 -1.421875 -0.171875 -2.6875zm0.734375 -11.359375l0.046875 2.390625l-6.09375 0q-2.390625 0 -4.28125 0.4375q-1.890625 0.421875 -3.1875 1.234375q-1.296875 0.8125 -2.0 1.96875q-0.6875 1.15625 -0.6875 2.609375q0 1.515625 0.75 2.765625q0.765625 1.25 2.1875 1.984375q1.4375 0.71875 3.390625 0.71875q2.578125 0 4.5625 -0.9375q2.0 -0.953125 3.296875 -2.515625q1.3125 -1.5625 1.75 -3.421875l1.359375 1.796875q-0.34375 1.28125 -1.25 2.671875q-0.890625 1.375 -2.3125 2.5625q-1.40625 1.171875 -3.359375 1.921875q-1.9375 0.734375 -4.40625 0.734375q-2.734375 0 -4.796875 -1.046875q-2.046875 -1.0625 -3.171875 -2.859375q-1.125 -1.8125 -1.125 -4.109375q0 -2.0625 0.890625 -3.703125q0.890625 -1.65625 2.546875 -2.8125q1.671875 -1.171875 4.046875 -1.78125q2.390625 -0.609375 5.359375 -0.609375l6.484375 0zm13.825317 -7.109375l0 23.515625l-3.09375 0l0 -28.171875l3.046875 0l0.046875 4.65625zm10.0 -4.859375l-0.109375 2.859375q-0.484375 -0.078125 -0.984375 -0.125q-0.5 -0.0625 -1.09375 -0.0625q-2.0 0 -3.546875 0.75q-1.53125 0.734375 -2.5625 2.046875q-1.03125 1.3125 -1.578125 3.0625q-0.546875 1.75 -0.625 3.78125l-1.140625 0.40625q0 -2.75 0.5625 -5.125q0.578125 -2.375 1.75 -4.15625q1.171875 -1.78125 2.984375 -2.765625q1.8125 -0.984375 4.28125 -0.984375q0.578125 0 1.15625 0.09375q0.59375 0.078125 0.90625 0.21875zm13.638855 25.359375l9.046875 -25.15625l3.203125 0l-10.546875 28.171875l-2.265625 0l0.5625 -3.015625zm-8.171875 -25.15625l9.171875 25.234375l0.46875 2.9375l-2.296875 0l-10.578125 -28.171875l3.234375 0zm42.257935 23.125l0 -14.53125q0 -2.015625 -0.828125 -3.46875q-0.828125 -1.453125 -2.453125 -2.234375q-1.609375 -0.78125 -3.984375 -0.78125q-2.1875 0 -3.890625 0.765625q-1.703125 0.765625 -2.6875 2.0625q-0.96875 1.28125 -0.96875 2.84375l-3.09375 -0.03125q0 -1.578125 0.765625 -3.0625q0.765625 -1.484375 2.1875 -2.65625q1.4375 -1.171875 3.421875 -1.859375q2.0 -0.6875 4.421875 -0.6875q3.0 0 5.296875 1.015625q2.3125 1.0 3.625 3.03125q1.3125 2.03125 1.3125 5.109375l0 13.625q0 1.453125 0.21875 3.015625q0.234375 1.5625 0.640625 2.546875l0 0.34375l-3.328125 0q-0.3125 -0.9375 -0.484375 -2.359375q-0.171875 -1.421875 -0.171875 -2.6875zm0.734375 -11.359375l0.046875 2.390625l-6.09375 0q-2.390625 0 -4.28125 0.4375q-1.890625 0.421875 -3.1875 1.234375q-1.296875 0.8125 -2.0 1.96875q-0.6875 1.15625 -0.6875 2.609375q0 1.515625 0.75 2.765625q0.765625 1.25 2.1875 1.984375q1.4375 0.71875 3.390625 0.71875q2.578125 0 4.5625 -0.9375q2.0 -0.953125 3.296875 -2.515625q1.3125 -1.5625 1.75 -3.421875l1.359375 1.796875q-0.34375 1.28125 -1.25 2.671875q-0.890625 1.375 -2.3125 2.5625q-1.40625 1.171875 -3.359375 1.921875q-1.9375 0.734375 -4.40625 0.734375q-2.734375 0 -4.796875 -1.046875q-2.046875 -1.0625 -3.171875 -2.859375q-1.125 -1.8125 -1.125 -4.109375q0 -2.0625 0.890625 -3.703125q0.890625 -1.65625 2.546875 -2.8125q1.671875 -1.171875 4.046875 -1.78125q2.390625 -0.609375 5.359375 -0.609375l6.484375 0zm14.215942 -23.59375l0 40.0l-3.125 0l0 -40.0l3.125 0zm11.587402 0l0 40.0l-3.09375 0l0 -40.0l3.09375 0zm-0.671875 24.171875l-1.390625 -0.78125q0.140625 -2.5 1.0 -4.6875q0.859375 -2.1875 2.328125 -3.84375q1.46875 -1.671875 3.46875 -2.609375q2.015625 -0.9375 4.4375 -0.9375q2.109375 0 3.765625 0.578125q1.671875 0.5625 2.828125 1.796875q1.15625 1.234375 1.765625 3.203125q0.625 1.96875 0.625 4.75l0 18.359375l-3.125 0l0 -18.390625q0 -2.890625 -0.8125 -4.53125q-0.8125 -1.65625 -2.296875 -2.359375q-1.484375 -0.703125 -3.515625 -0.703125q-2.234375 0 -3.921875 0.984375q-1.671875 0.96875 -2.8125 2.515625q-1.125 1.546875 -1.734375 3.3125q-0.59375 1.75 -0.609375 3.34375zm25.153381 2.15625l0 -0.828125q0 -3.078125 0.890625 -5.671875q0.90625 -2.609375 2.546875 -4.515625q1.640625 -1.90625 3.953125 -2.953125q2.3125 -1.046875 5.15625 -1.046875q2.859375 0 5.1875 1.046875q2.34375 1.046875 3.984375 2.953125q1.65625 1.90625 2.53125 4.515625q0.890625 2.59375 0.890625 5.671875l0 0.828125q0 3.078125 -0.890625 5.671875q-0.875 2.578125 -2.53125 4.5q-1.640625 1.90625 -3.953125 2.96875q-2.296875 1.046875 -5.171875 1.046875q-2.859375 0 -5.1875 -1.046875q-2.3125 -1.0625 -3.96875 -2.96875q-1.640625 -1.921875 -2.546875 -4.5q-0.890625 -2.59375 -0.890625 -5.671875zm3.125 -0.828125l0 0.828125q0 2.3125 0.609375 4.390625q0.609375 2.0625 1.8125 3.671875q1.21875 1.59375 2.984375 2.53125q1.78125 0.921875 4.0625 0.921875q2.296875 0 4.046875 -0.921875q1.765625 -0.9375 2.953125 -2.53125q1.203125 -1.609375 1.8125 -3.671875q0.625 -2.078125 0.625 -4.390625l0 -0.828125q0 -2.296875 -0.625 -4.34375q-0.609375 -2.0625 -1.828125 -3.671875q-1.203125 -1.625 -2.96875 -2.5625q-1.765625 -0.9375 -4.0625 -0.9375q-2.265625 0 -4.03125 0.9375q-1.75 0.9375 -2.96875 2.5625q-1.203125 1.609375 -1.8125 3.671875q-0.609375 2.046875 -0.609375 4.34375z" fill-rule="nonzero"/><path fill="#000000" fill-opacity="0.0" d="m131.08661 224.86089l494.48822 0l0 141.73228l-494.48822 0z" fill-rule="evenodd"/><path fill="#000000" d="m189.93987 306.90515l15.265625 -0.1875q-0.640625 7.578125 -4.859375 12.890625q-4.203125 5.296875 -10.609375 8.03125q-6.40625 2.734375 -13.640625 2.59375q-6.890625 -0.125 -11.59375 -2.828125q-4.6875 -2.71875 -7.375 -7.296875q-2.6875 -4.59375 -3.5625 -10.3125q-0.859375 -5.71875 -0.078125 -11.828125l0.5 -3.59375q0.90625 -6.328125 3.359375 -12.1875q2.46875 -5.859375 6.453125 -10.453125q4.0 -4.609375 9.515625 -7.21875q5.515625 -2.625 12.484375 -2.5q7.421875 0.140625 12.640625 3.109375q5.21875 2.953125 8.109375 8.296875q2.890625 5.328125 3.265625 12.5625l-15.546875 -0.046875q0.140625 -3.5 -0.6875 -6.0q-0.8125 -2.515625 -2.890625 -3.90625q-2.0625 -1.390625 -5.8125 -1.53125q-4.046875 -0.125 -6.765625 1.671875q-2.703125 1.796875 -4.390625 4.8125q-1.6875 3.0 -2.578125 6.515625q-0.890625 3.5 -1.34375 6.78125l-0.453125 3.734375q-0.3125 2.6875 -0.59375 6.046875q-0.265625 3.34375 0.234375 6.421875q0.5 3.078125 2.3125 5.125q1.828125 2.046875 5.703125 2.1875q3.640625 0.09375 6.328125 -1.15625q2.6875 -1.25 4.34375 -3.734375q1.671875 -2.484375 2.265625 -6.0zm79.70503 -12.34375l-0.3125 2.6875q-0.921875 6.515625 -3.5 12.515625q-2.5625 5.984375 -6.734375 10.640625q-4.1718903 4.640625 -9.875015 7.3125q-5.6875 2.65625 -12.796875 2.515625q-6.84375 -0.125 -11.65625 -2.90625q-4.796875 -2.78125 -7.65625 -7.421875q-2.84375 -4.65625 -3.84375 -10.4375q-1.0 -5.796875 -0.265625 -11.953125l0.3125 -2.6875q0.921875 -6.46875 3.515625 -12.40625q2.59375 -5.953125 6.78125 -10.59375q4.203125 -4.65625 9.890625 -7.28125q5.703125 -2.625 12.765625 -2.484375q6.78125 0.09375 11.562515 2.875q4.796875 2.78125 7.640625 7.40625q2.84375 4.625 3.875 10.390625q1.03125 5.765625 0.296875 11.828125zm-16.17189 2.953125l0.359375 -2.828125q0.3125 -2.6875 0.40625 -6.046875q0.09375 -3.375 -0.59375 -6.546875q-0.671875 -3.171875 -2.609375 -5.265625q-1.9375 -2.09375 -5.671875 -2.28125q-4.15625 -0.171875 -7.03125 1.671875q-2.859375 1.84375 -4.71875 4.921875q-1.84375 3.078125 -2.890625 6.671875q-1.046875 3.59375 -1.5 6.921875l-0.359375 2.828125q-0.328125 2.6875 -0.4375 6.09375q-0.109375 3.390625 0.546875 6.578125q0.65625 3.1875 2.609375 5.3125q1.96875 2.109375 5.75 2.25q4.0625 0.1875 6.921875 -1.703125q2.875 -1.890625 4.765625 -4.984375q1.890625 -3.109375 2.953125 -6.703125q1.078125 -3.609375 1.5 -6.890625zm53.628036 -19.8125l-24.421875 51.625l-17.265625 0l35.171875 -66.34375l11.03125 0l-4.515625 14.71875zm4.203125 51.625l-6.75 -53.21875l0.359375 -13.125l10.390625 0l12.265625 66.34375l-16.265625 0zm3.546875 -24.75l-2.1875 12.359375l-33.125 0l2.1875 -12.359375l33.125 0zm56.7778 2.328125l15.265625 -0.1875q-0.640625 7.578125 -4.859375 12.890625q-4.203125 5.296875 -10.609375 8.03125q-6.40625 2.734375 -13.640625 2.59375q-6.890625 -0.125 -11.59375 -2.828125q-4.6875 -2.71875 -7.375 -7.296875q-2.6875 -4.59375 -3.5625 -10.3125q-0.859375 -5.71875 -0.078125 -11.828125l0.5 -3.59375q0.90625 -6.328125 3.359375 -12.1875q2.46875 -5.859375 6.453125 -10.453125q4.0 -4.609375 9.515625 -7.21875q5.515625 -2.625 12.484375 -2.5q7.421875 0.140625 12.640625 3.109375q5.21875 2.953125 8.109375 8.296875q2.890625 5.328125 3.265625 12.5625l-15.546875 -0.046875q0.140625 -3.5 -0.6875 -6.0q-0.8125 -2.515625 -2.890625 -3.90625q-2.0625 -1.390625 -5.8125 -1.53125q-4.046875 -0.125 -6.765625 1.671875q-2.703125 1.796875 -4.390625 4.8125q-1.6875 3.0 -2.578125 6.515625q-0.890625 3.5 -1.34375 6.78125l-0.453125 3.734375q-0.3125 2.6875 -0.59375 6.046875q-0.265625 3.34375 0.234375 6.421875q0.5 3.078125 2.3125 5.125q1.828125 2.046875 5.703125 2.1875q3.640625 0.09375 6.328125 -1.15625q2.6875 -1.25 4.34375 -3.734375q1.671875 -2.484375 2.265625 -6.0zm69.67377 -17.59375l-2.140625 12.3125l-33.125 0l2.140625 -12.3125l33.125 0zm-23.28125 -26.328125l-11.53125 66.34375l-15.578125 0l11.484375 -66.34375l15.625 0zm38.28125 0l-11.53125 66.34375l-15.53125 0l11.46875 -66.34375l15.59375 0zm26.288147 0l-11.484375 66.34375l-15.578125 0l11.53125 -66.34375l15.53125 0zm64.623474 0l-11.53125 66.34375l-15.125 0l-15.8125 -41.875l-7.296875 41.875l-15.578125 0l11.484375 -66.34375l15.21875 0l15.8125 41.875l7.25 -41.875l15.578125 0zm57.10193 30.890625l-4.28125 27.296875q-3.0625 3.546875 -7.671875 5.53125q-4.59375 1.984375 -9.625 2.78125q-5.03125 0.796875 -9.453125 0.703125q-6.9375 -0.078125 -11.796875 -2.71875q-4.84375 -2.65625 -7.71875 -7.15625q-2.859375 -4.515625 -3.875 -10.25q-1.0 -5.75 -0.21875 -12.046875l0.5 -3.640625q0.859375 -6.46875 3.390625 -12.328125q2.53125 -5.859375 6.578125 -10.40625q4.0625 -4.5625 9.640625 -7.15625q5.59375 -2.59375 12.65625 -2.46875q7.34375 0.09375 12.46875 2.765625q5.125 2.65625 7.9375 7.671875q2.828125 5.015625 3.296875 12.265625l-14.90625 -0.046875q-0.234375 -3.015625 -1.125 -5.3125q-0.875 -2.296875 -2.796875 -3.609375q-1.90625 -1.328125 -5.234375 -1.46875q-4.015625 -0.1875 -6.84375 1.65625q-2.828125 1.84375 -4.71875 4.90625q-1.890625 3.046875 -2.96875 6.609375q-1.0625 3.546875 -1.515625 6.78125l-0.5 3.828125q-0.359375 3.0625 -0.4375 6.484375q-0.0625 3.40625 0.75 6.421875q0.828125 3.0 2.984375 4.921875q2.171875 1.90625 6.21875 2.0q1.78125 0.046875 3.4375 -0.21875q1.671875 -0.28125 3.234375 -0.890625q1.578125 -0.625 3.046875 -1.578125l2.046875 -10.34375l-10.796875 0l1.90625 -10.984375l26.390625 0z" fill-rule="nonzero"/></g></svg>