<svg xmlns="http://www.w3.org/2000/svg" version="1.1" xmlns:xlink="http://www.w3.org/1999/xlink" xmlns:svgjs="http://svgjs.dev/svgjs" width="100%" height="100%" viewBox="0 0 1000 600"><rect width="1000" height="600" x="0" y="0" fill="#ffffff"/><g><rect width="333.3333333333333" height="333.3333333333333" rx="13.333333333333334" ry="13.333333333333334" y="206.90005100951342" fill="#FF" transform="matrix(0.6768542932325807,0,0,0.676854293232581,0,47.14974463062603)" x="184.6778564453125"/><path d="M305.40300935897346 414.49817725443506L305.40300935897346 414.49817725443506Q305.40300935897346 431.4504191365563 298.02058144256586 440.00856705446597Q290.6381535261582 448.5667149723755 273.9046502489675 448.5667149723755L273.9046502489675 448.5667149723755Q266.2214567507803 448.5667149723755 260.3155144176542 446.89883310977973Q254.40957208452807 445.23095124718395 251.8667358022099 444.43802380431055L251.8667358022099 444.43802380431055Q250.66367347509163 443.83649264075143 249.9801153346835 443.0435651978779Q249.29655719427538 442.27798008062086 249.48795347358964 440.69212519487405L249.48795347358964 440.69212519487405L251.26520463865074 430.0559605301238Q251.6479971972793 427.7045205271198 253.83538324658525 428.2787093650627L253.83538324658525 428.2787093650627Q256.78835441314834 429.4817716921809 260.2334874408052 430.8488879729972Q263.6786204684621 432.21600425381337 269.9673553602168 432.21600425381337L269.9673553602168 432.21600425381337Q278.82626885990595 432.21600425381337 282.6541944461914 427.51312424780554Q286.5094623580932 422.78290191618146 286.5094623580932 410.1780898070558L286.5094623580932 410.1780898070558L286.5094623580932 303.07820036791225Q286.5094623580932 300.535364085594 288.86090236109715 300.535364085594L288.86090236109715 300.535364085594L303.24296563528384 300.535364085594Q305.40300935897346 300.535364085594 305.40300935897346 303.07820036791225L305.40300935897346 303.07820036791225L305.40300935897346 414.49817725443506ZM398.1208355239303 298.56671664121865L398.1208355239303 298.56671664121865Q407.96407274580713 298.56671664121865 417.1237518272759 301.79311106394493Q426.28343090874466 305.0468478122875 433.556489522687 310.5699975867851Q440.8568904622457 316.06580503566636 445.55977046825353 323.36620597522506Q450.28999279987767 330.6392645891674 451.4657128013796 338.9239892509138L451.4657128013796 338.9239892509138Q451.87584768562454 340.67389809035853 451.5750821038449 341.27542925391765Q451.27431652206536 341.8769604174769 450.0985965205634 341.8769604174769L450.0985965205634 341.8769604174769L435.3337406877481 343.05268041897887Q434.3494169655604 343.24407669829304 433.9666244069318 342.6425455347339Q433.556489522687 342.06835669679117 433.3650932433727 341.0840329746035L433.3650932433727 341.0840329746035Q430.6035183561239 328.47922086547777 421.4438392746552 320.7140003904416Q412.31150251880274 312.9214375897891 398.7223666874894 312.9214375897891L398.7223666874894 312.9214375897891Q378.2429648008623 312.9214375897891 367.22400757748346 328.09642830684925Q356.2050503541046 343.24407669829304 356.2050503541046 373.7581120861114L356.2050503541046 373.7581120861114Q356.2050503541046 403.28782375174194 367.0326112981692 418.43547214318585Q377.8601722422337 433.610462860246 399.7066904096771 433.610462860246L399.7066904096771 433.610462860246Q413.678618799619 433.610462860246 423.0296941604021 426.9115930842464Q432.380769521185 420.21272330824695 438.0953155749969 405.4478674754316L438.0953155749969 405.4478674754316Q438.66950441293966 404.27214747392964 440.4467555780008 404.6549400325582L440.4467555780008 404.6549400325582L452.0672439649388 407.416514919807Q452.66877512849794 407.6079111991213 453.05156768712646 408.2094423626804Q453.434360245755 408.81097352623954 453.05156768712646 410.1780898070558L453.05156768712646 410.1780898070558Q451.4657128013796 415.8926358608676 448.2393183786533 421.3884433097488Q444.98558163031066 426.9115930842464 440.2553592986865 431.7238423927196Q435.52513696706234 436.563434026809 429.2364020753077 440.39135961309444Q422.92032485793675 444.24662752499626 415.3465006622148 446.40667124868594Q407.7726764664929 448.5667149723755 398.9137629668037 448.5667149723755L398.9137629668037 448.5667149723755Q379.4186848023643 448.5667149723755 365.33738710995704 439.51640519337207Q351.2834317431662 430.4660954143686 343.90100382675854 413.51385353224737Q336.51857591035093 396.58895397574247 336.51857591035093 373.3753195274828L336.51857591035093 373.3753195274828Q336.51857591035093 350.1343427536069 343.90100382675854 333.29147017395087Q351.2834317431662 316.4759399199113 365.1459908306428 307.5076571177568Q379.0358922437357 298.56671664121865 398.1208355239303 298.56671664121865L398.1208355239303 298.56671664121865Z " fill="white" transform="matrix(0.6768542932325807,0,0,0.676854293232581,0,47.14974463062603)"/><path d="M738.0767041398595 314.59865831668566L738.0767041398595 427.3750663365005Q738.0767041398595 448.5667116343416 714.120931194474 448.5667116343416L714.120931194474 448.5667116343416L621.2462422369795 448.5667116343416Q601.3445231746592 448.5667116343416 601.3445231746592 429.9549188075421L601.3445231746592 429.9549188075421L601.3445231746592 315.8885845522064Q601.3445231746592 298.56671796092763 616.0865372948965 298.56671796092763L616.0865372948965 298.56671796092763L724.8088914316461 298.56671796092763Q738.0767041398595 298.56671796092763 738.0767041398595 314.59865831668566L738.0767041398595 314.59865831668566ZM1015.4108447768226 314.59865831668566L1015.4108447768226 427.3750663365005Q1015.4108447768226 448.5667116343416 991.4550718314371 448.5667116343416L991.4550718314371 448.5667116343416L898.5803828739424 448.5667116343416Q878.6786638116222 448.5667116343416 878.6786638116222 429.9549188075421L878.6786638116222 429.9549188075421L878.6786638116222 315.8885845522064Q878.6786638116222 298.56671796092763 893.2364027553565 298.56671796092763L893.2364027553565 298.56671796092763L1002.143032068609 298.56671796092763Q1015.4108447768226 298.56671796092763 1015.4108447768226 314.59865831668566L1015.4108447768226 314.59865831668566ZM1292.7449854137853 314.59865831668566L1292.7449854137853 427.3750663365005Q1292.7449854137853 448.5667116343416 1268.7892124684001 448.5667116343416L1268.7892124684001 448.5667116343416L1175.9145235109056 448.5667116343416Q1156.0128044485855 448.5667116343416 1156.0128044485855 429.9549188075421L1156.0128044485855 429.9549188075421L1156.0128044485855 315.8885845522064Q1156.0128044485855 298.56671796092763 1170.5705433923195 298.56671796092763L1170.5705433923195 298.56671796092763L1279.4771727055722 298.56671796092763Q1292.7449854137853 298.56671796092763 1292.7449854137853 314.59865831668566L1292.7449854137853 314.59865831668566Z " fill="black" transform="matrix(0.6768542932325807,0,0,0.676854293232581,0,47.14974463062603)"/></g></svg>