<svg xmlns="http://www.w3.org/2000/svg" version="1.1" xmlns:xlink="http://www.w3.org/1999/xlink" xmlns:svgjs="http://svgjs.dev/svgjs" width="100%" height="100%" viewBox="0 0 1000 600"><rect width="1000" height="600" x="0" y="0" fill="#ffffff"/><g><rect width="333.3333333333333" height="333.3333333333333" rx="13.333333333333334" ry="13.333333333333334" y="370.79775178394675" fill="#F" transform="matrix(0.35860232737799164,0,0,0.35860232737799164,0,107.26400235488454)" x="348.5755310058593"/><path d="M469.3006931617345 578.3958708266882L469.3006931617345 578.3958708266882Q469.3006931617345 595.3481127088096 461.9182652453269 603.9062606267191Q454.53583732891923 612.4644085446289 437.80233405172856 612.4644085446289L437.80233405172856 612.4644085446289Q430.11914055354134 612.4644085446289 424.2131982204152 610.7965266820329Q418.3072558872891 609.1286448194371 415.7644196049709 608.3357173765637L415.7644196049709 608.3357173765637Q414.56135727785266 607.7341862130047 413.8777991374445 606.9412587701313Q413.1942409970364 606.1756736528741 413.3856372763507 604.5898187671273L413.3856372763507 604.5898187671273L415.1628884414118 593.953654102377Q415.54568100004036 591.6022140993732 417.7330670493463 592.176402937316L417.7330670493463 592.176402937316Q420.6860382159094 593.3794652644342 424.13117124356626 594.7465815452504Q427.57630427122314 596.1136978260668 433.86503916297784 596.1136978260668L433.86503916297784 596.1136978260668Q442.723952662667 596.1136978260668 446.55187824895245 591.4108178200588Q450.4071461608542 586.6805954884346 450.4071461608542 574.0757833793091L450.4071461608542 574.0757833793091L450.4071461608542 466.97589394016546Q450.4071461608542 464.43305765784726 452.7585861638582 464.43305765784726L452.7585861638582 464.43305765784726L467.1406494380449 464.43305765784726Q469.3006931617345 464.43305765784726 469.3006931617345 466.97589394016546L469.3006931617345 466.97589394016546L469.3006931617345 578.3958708266882ZM562.0185193266914 462.4644102134719L562.0185193266914 462.4644102134719Q571.8617565485681 462.4644102134719 581.0214356300369 465.6908046361982Q590.1811147115056 468.9445413845408 597.454173325448 474.4676911590384Q604.7545742650068 479.96349860791963 609.4574542710145 487.26389954747833Q614.1876766026387 494.53695816142067 615.3633966041407 502.821682823167L615.3633966041407 502.821682823167Q615.7735314883855 504.5715916626118 615.4727659066059 505.1731228261709Q615.1720003248265 505.7746539897301 613.9962803233245 505.7746539897301L613.9962803233245 505.7746539897301L599.2314244905092 506.9503739912321Q598.2471007683214 507.1417702705463 597.8643082096928 506.54023910698714Q597.454173325448 505.9660502690444 597.2627770461338 504.9817265468567L597.2627770461338 504.9817265468567Q594.501202158885 492.37691443773105 585.3415230774162 484.6116939626948Q576.2091863215637 476.8191311620423 562.6200504902504 476.8191311620423L562.6200504902504 476.8191311620423Q542.1406486036233 476.8191311620423 531.1216913802446 491.99412187910247Q520.1027341568656 507.1417702705463 520.1027341568656 537.6558056583647L520.1027341568656 537.6558056583647Q520.1027341568656 567.1855173239951 530.9302951009302 582.333165715439Q541.7578560449947 597.5081564324992 563.6043742124382 597.5081564324992L563.6043742124382 597.5081564324992Q577.5763026023801 597.5081564324992 586.927377963163 590.8092866564996Q596.278453323946 584.1104168805002 601.992999377758 569.3455610476849L601.992999377758 569.3455610476849Q602.5671882157008 568.1698410461829 604.344439380762 568.5526336048115L604.344439380762 568.5526336048115L615.9649277676999 571.3142084920603Q616.5664589312589 571.5056047713745 616.9492514898875 572.1071359349337Q617.3320440485161 572.7086670984927 616.9492514898875 574.0757833793091L616.9492514898875 574.0757833793091Q615.3633966041407 579.7903294331209 612.1370021814143 585.2861368820022Q608.8832654330718 590.8092866564996 604.1530431014476 595.6215359649727Q599.4228207698234 600.4611275990624 593.1340858780688 604.2890531853477Q586.8180086606978 608.1443210972495 579.2441844649759 610.3043648209391Q571.6703602692539 612.4644085446289 562.8114467695648 612.4644085446289L562.8114467695648 612.4644085446289Q543.3163686051253 612.4644085446289 529.2350709127181 603.4140987656253Q515.1811155459272 594.3637889866218 507.7986876295196 577.4115471045006Q500.41625971311197 560.4866475479957 500.41625971311197 537.2730130997361L500.41625971311197 537.2730130997361Q500.41625971311197 514.0320363258602 507.7986876295196 497.18916374620414Q515.1811155459272 480.3736334921645 529.043674633404 471.40535069001004Q542.9335760464967 462.4644102134719 562.0185193266914 462.4644102134719L562.0185193266914 462.4644102134719Z " fill="#ffffff" transform="matrix(0.35860232737799164,0,0,0.35860232737799164,0,107.26400235488454)"/><path d="M821.1991306617344 578.3958708266882L821.1991306617344 578.3958708266882Q821.1991306617344 595.3481127088096 813.8167027453268 603.9062606267191Q806.4342748289192 612.4644085446289 789.7007715517285 612.4644085446289L789.7007715517285 612.4644085446289Q782.0175780535413 612.4644085446289 776.1116357204152 610.7965266820329Q770.205693387289 609.1286448194371 767.6628571049708 608.3357173765637L767.6628571049708 608.3357173765637Q766.4597947778526 607.7341862130047 765.7762366374444 606.9412587701313Q765.0926784970363 606.1756736528741 765.2840747763506 604.5898187671273L765.2840747763506 604.5898187671273L767.0613259414117 593.953654102377Q767.4441185000402 591.6022140993732 769.6315045493462 592.176402937316L769.6315045493462 592.176402937316Q772.5844757159092 593.3794652644342 776.0296087435662 594.7465815452504Q779.4747417712231 596.1136978260668 785.7634766629777 596.1136978260668L785.7634766629777 596.1136978260668Q794.6223901626669 596.1136978260668 798.4503157489524 591.4108178200588Q802.3055836608542 586.6805954884346 802.3055836608542 574.0757833793091L802.3055836608542 574.0757833793091L802.3055836608542 466.97589394016546Q802.3055836608542 464.43305765784726 804.657023663858 464.43305765784726L804.657023663858 464.43305765784726L819.0390869380448 464.43305765784726Q821.1991306617344 464.43305765784726 821.1991306617344 466.97589394016546L821.1991306617344 466.97589394016546L821.1991306617344 578.3958708266882ZM898.3591735510025 612.4644085446289L898.3591735510025 612.4644085446289Q883.5943177181872 612.4644085446289 872.2745949130289 605.6835117917803Q860.9548721078704 598.8752727133156 854.7755065185811 586.7626224652836Q848.5687986036754 574.6773145428681 848.5687986036754 558.9281349878652L848.5687986036754 558.9281349878652Q848.5687986036754 542.577424269303 854.9669027978954 530.2733777419569Q861.3650069921154 517.9693312146109 872.5753604948085 511.07906515929704Q883.8130563231178 504.1887991039833 898.5779121559332 504.1887991039833L898.5779121559332 504.1887991039833Q913.5341642680627 504.1887991039833 924.6624907939068 511.18843446176237Q935.7634749941346 518.1607274939252 941.9701829090403 530.4647740212713Q948.176890823946 542.7688205486173 948.176890823946 558.7093963829345L948.176890823946 558.7093963829345Q948.176890823946 574.4585759379377 941.8881559321914 586.5712261859694Q935.5720787148203 598.6838764340011 924.4437521889762 605.5741424893149Q913.3427679887485 612.4644085446289 898.3591735510025 612.4644085446289L898.3591735510025 612.4644085446289ZM898.7693084352474 600.0509927148173L898.7693084352474 600.0509927148173Q908.9953382157528 600.0509927148173 916.2957391553115 595.04734712703Q923.5687977692538 590.0163592136262 927.3967233555393 580.6652838528432Q931.2519912674411 571.3142084920603 931.2519912674411 558.326603824306L931.2519912674411 558.326603824306Q931.2519912674411 545.3389991565518 927.3146963786903 535.9879237957689Q923.3774014899396 526.6368484349857 916.077000550381 521.5238335447331Q908.8039419364385 516.383476328864 898.5779121559332 516.383476328864L898.5779121559332 516.383476328864Q888.5159363291257 516.383476328864 881.051481435869 521.5238335447331Q873.5596842169961 526.6368484349857 869.5403623513964 535.9879237957689Q865.4936981601803 545.3389991565518 865.4936981601803 558.326603824306L865.4936981601803 558.326603824306Q865.4936981601803 571.1228122127459 869.5403623513964 580.5832568759943Q873.5596842169961 590.0163592136262 881.051481435869 595.04734712703Q888.5159363291257 600.0509927148173 898.7693084352474 600.0509927148173L898.7693084352474 600.0509927148173ZM975.3551624865727 610.4957611002535L975.3551624865727 610.4957611002535Q972.5935875993239 610.4957611002535 972.5935875993239 607.9255824923189L972.5935875993239 607.9255824923189L972.5935875993239 508.72762515629313Q972.5935875993239 506.1574465483586 974.7536313230136 506.1574465483586L974.7536313230136 506.1574465483586L986.5655159892657 506.1574465483586Q988.7255597129555 506.1574465483586 988.7255597129555 508.3174902720483L988.7255597129555 508.3174902720483L988.7255597129555 519.746582379672Q988.7255597129555 520.7309061018597 989.1356945972003 520.922302381174Q989.5184871558289 521.1136986604881 990.5028108780165 520.3207712176147L990.5028108780165 520.3207712176147Q997.0102843747018 515.2077563273621 1002.6154611260483 511.5712270203909Q1008.2206378773949 507.9346977134197 1014.126580210521 506.04807724589335Q1020.0325225436471 504.1887991039833 1026.7313923196466 504.1887991039833L1026.7313923196466 504.1887991039833Q1042.0704369904047 504.1887991039833 1050.2457923496859 512.4461814401134Q1058.421147708967 520.7309061018597 1058.421147708967 533.9099070489281L1058.421147708967 533.9099070489281L1058.421147708967 607.3513936543761Q1058.421147708967 610.4957611002535 1055.4681765424039 610.4957611002535L1055.4681765424039 610.4957611002535L1044.449219319025 610.4957611002535Q1043.0547607125927 610.4957611002535 1042.4805718746497 609.8122029598453Q1041.8790407110905 609.1286448194371 1041.8790407110905 607.9255824923189L1041.8790407110905 607.9255824923189L1041.8790407110905 537.6558056583647Q1041.8790407110905 528.003964715802 1036.9574221001521 522.5901842437697Q1032.0358034892138 517.1764037717375 1021.3996388244633 517.1764037717375L1021.3996388244633 517.1764037717375Q1015.7124350962679 517.1764037717375 1010.6814471828642 519.0630242392639Q1005.6504592694604 520.922302381174 1000.5374443792076 524.3674354088308Q995.424429488955 527.8125684364877 989.1356945972003 533.1169796060547L989.1356945972003 533.1169796060547L989.1356945972003 607.5427899336903Q989.1356945972003 610.4957611002535 986.1827234306372 610.4957611002535L986.1827234306372 610.4957611002535L975.3551624865727 610.4957611002535ZM1147.6118138694178 597.8909489911277L1147.6118138694178 597.8909489911277Q1140.3114129298592 604.9726113257559 1131.7532650119497 608.7185099351923Q1123.1951170940401 612.4644085446289 1112.5589524292895 612.4644085446289L1112.5589524292895 612.4644085446289Q1097.1925654329152 612.4644085446289 1088.4430212356915 604.5898187671273Q1079.6934770384673 596.7152289896258 1079.6934770384673 583.9190206011858L1079.6934770384673 583.9190206011858Q1079.6934770384673 573.4742522157499 1085.5994193715937 565.9004280200279Q1091.5053617047197 558.326603824306 1103.0985077660412 553.8971470744614Q1114.7189961529793 549.4676903246168 1131.6438957094842 548.4833666024292L1131.6438957094842 548.4833666024292L1147.0102827058586 547.3076466009272Q1148.1860027073608 547.1162503216129 1149.1703264295484 546.5147191580538Q1150.154650151736 545.9131879944946 1150.154650151736 544.3546754343641L1150.154650151736 544.3546754343641L1150.154650151736 539.0229219391808Q1150.154650151736 528.4140996000469 1143.565149678202 522.2073916851411Q1136.9756492046677 516.0006837702355 1125.7379533763583 516.0006837702355L1125.7379533763583 516.0006837702355Q1117.0977784815996 516.0006837702355 1110.0981431238206 519.9379786589863Q1103.0985077660412 523.8752735477369 1097.6027003171603 531.7498633252385L1097.6027003171603 531.7498633252385Q1096.8097728742869 532.7341870474262 1096.3176110131926 533.0349526292057Q1095.8254491520988 533.3357182109853 1094.649729150597 532.9255833267405L1094.649729150597 532.9255833267405L1084.013564485847 529.3984233222345Q1083.4120333222877 528.9882884379897 1083.1386100661243 528.4140996000469Q1082.8378444843447 527.8125684364877 1083.6307719272181 526.2267135507409L1083.6307719272181 526.2267135507409Q1089.5367142603445 516.0006837702355 1100.2549059019434 510.0947414371094Q1110.9730975435427 504.1887991039833 1126.5308808192317 504.1887991039833L1126.5308808192317 504.1887991039833Q1139.7372240919162 504.1887991039833 1148.4867682891404 508.2354632951993Q1157.236312486364 512.254785160799 1161.6657692362087 519.8286093565209Q1166.0952259860533 527.4297758778591 1166.0952259860533 537.8472019376788L1166.0952259860533 537.8472019376788L1166.0952259860533 607.5427899336903Q1166.0952259860533 609.3200410987515 1165.5210371481107 609.8942299366943Q1164.9195059845515 610.4957611002535 1163.5523897037351 610.4957611002535L1163.5523897037351 610.4957611002535L1153.5177562025438 610.4957611002535Q1152.1232975961116 610.4957611002535 1151.5491087581686 609.6208066805311Q1150.9475775946094 608.7185099351923 1150.7561813152952 607.3513936543761L1150.7561813152952 607.3513936543761L1150.564785035981 598.3010838753726Q1149.9632538724218 595.5395089881238 1147.6118138694178 597.8909489911277L1147.6118138694178 597.8909489911277ZM1150.154650151736 560.4866475479957L1150.154650151736 560.4866475479957Q1150.154650151736 557.150883822804 1147.3930752644874 557.3422801021184L1147.3930752644874 557.3422801021184L1134.4054705967328 558.5180001036204Q1125.3551608177295 558.9281349878652 1118.2734984831018 560.7874131297752Q1111.1918361484736 562.6466912716853 1106.2702175375348 565.5996624382483Q1101.3485989265964 568.5526336048115 1098.778420318662 572.5992977960275Q1096.2082417107276 576.6459619872435 1096.2082417107276 581.9503731568104L1096.2082417107276 581.9503731568104Q1096.2082417107276 590.6178903771854 1102.223553346319 595.4301396856586Q1108.2388649819104 600.269731319748 1118.464894762416 600.269731319748L1118.464894762416 600.269731319748Q1124.7536296541703 600.269731319748 1130.5775450104475 598.000318293593Q1136.3741180411084 595.7309052674382 1140.7215478141038 592.176402937316L1140.7215478141038 592.176402937316Q1145.2330315407976 588.4578466534958 1147.693840846267 584.520551764745Q1150.154650151736 580.5832568759943 1150.154650151736 576.8373582665579L1150.154650151736 576.8373582665579L1150.154650151736 560.4866475479957ZM1245.4426549246273 518.57086237817L1220.4517693113066 518.57086237817Q1218.8659144255598 518.57086237817 1218.8659144255598 520.1293749383005L1218.8659144255598 520.1293749383005L1218.8659144255598 582.5519043203697Q1218.8659144255598 591.7936103786874 1222.0102818714372 594.9379778245648Q1225.1546493173146 598.0823452704421 1231.4707265346856 598.0823452704421L1231.4707265346856 598.0823452704421L1245.059862365999 598.0823452704421Q1246.0441860881865 598.0823452704421 1246.6183749261295 598.5745071315359Q1247.2199060896883 599.0666689926297 1247.2199060896883 600.269731319748L1247.2199060896883 600.269731319748L1247.028509810374 606.9412587701313Q1247.028509810374 608.9099062145067 1244.6497274817539 609.5114373780657L1244.6497274817539 609.5114373780657Q1242.6810800373787 609.8942299366943 1239.0445507304075 610.1129685416249Q1235.4080214234364 610.3043648209391 1231.9628883957794 610.3863917977881Q1228.5177553681224 610.4957611002535 1226.1389730395022 610.4957611002535L1226.1389730395022 610.4957611002535Q1213.7528995353073 610.4957611002535 1208.038353481495 604.6991880695925Q1202.3238074276833 598.8752727133156 1202.3238074276833 586.2704606041898L1202.3238074276833 586.2704606041898L1202.3238074276833 520.5395098225454Q1202.3238074276833 518.57086237817 1200.355159983308 518.57086237817L1200.355159983308 518.57086237817L1184.605980428305 518.57086237817Q1182.4459367046156 518.57086237817 1182.4459367046156 516.383476328864L1182.4459367046156 516.383476328864L1182.4459367046156 508.126093992734Q1182.4459367046156 506.1574465483586 1184.4145841489908 506.1574465483586L1184.4145841489908 506.1574465483586L1201.1480874261815 506.1574465483586Q1202.515203706998 506.1574465483586 1202.515203706998 504.5715916626118L1202.515203706998 504.5715916626118L1204.7025897563035 473.29197115753647Q1204.8939860356181 470.72179254960196 1206.8626334799933 470.72179254960196L1206.8626334799933 470.72179254960196L1216.70587070187 470.72179254960196Q1219.057310704874 470.72179254960196 1219.057310704874 473.4833674368507L1219.057310704874 473.4833674368507L1219.057310704874 504.5715916626118Q1219.057310704874 506.1574465483586 1220.6431655906208 506.1574465483586L1220.6431655906208 506.1574465483586L1245.4426549246273 506.1574465483586Q1247.602698648317 506.1574465483586 1247.602698648317 507.9346977134197L1247.602698648317 507.9346977134197L1247.602698648317 516.383476328864Q1247.602698648317 518.57086237817 1245.4426549246273 518.57086237817L1245.4426549246273 518.57086237817ZM1271.8279991443806 610.4957611002535L1271.8279991443806 610.4957611002535Q1269.2578205364462 610.4957611002535 1269.2578205364462 607.9255824923189L1269.2578205364462 607.9255824923189L1269.2578205364462 466.97589394016546Q1269.2578205364462 464.43305765784726 1271.417864260136 464.43305765784726L1271.417864260136 464.43305765784726L1283.0383526470737 464.43305765784726Q1285.1983963707635 464.43305765784726 1285.1983963707635 466.7844976608512L1285.1983963707635 466.7844976608512L1285.1983963707635 519.3364474954271Q1285.1983963707635 520.3207712176147 1285.608531255008 520.5395098225454Q1285.9913238136369 520.7309061018597 1286.9756475358245 519.9379786589863L1286.9756475358245 519.9379786589863Q1293.8659135911385 514.6335674894192 1299.6898289474152 511.07906515929704Q1305.4864019780762 507.5245628291749 1311.091578729423 505.85668096657906Q1316.6967554807693 504.1887991039833 1323.3956252567687 504.1887991039833L1323.3956252567687 504.1887991039833Q1338.7620122531434 504.1887991039833 1346.8279983099592 512.3641544632644Q1354.893984366775 520.5395098225454 1354.893984366775 534.1013033282425L1354.893984366775 534.1013033282425L1354.893984366775 607.3513936543761Q1354.893984366775 610.4957611002535 1351.9410132002117 610.4957611002535L1351.9410132002117 610.4957611002535L1340.9220559768328 610.4957611002535Q1339.5549396960168 610.4957611002535 1338.9534085324576 609.8122029598453Q1338.3518773688984 609.1286448194371 1338.3518773688984 607.9255824923189L1338.3518773688984 607.9255824923189L1338.3518773688984 537.6558056583647Q1338.3518773688984 528.003964715802 1333.43025875796 522.5901842437697Q1328.5086401470217 517.1764037717375 1317.8998178078878 517.1764037717375L1317.8998178078878 517.1764037717375Q1312.185271754076 517.1764037717375 1307.1542838406722 519.0630242392639Q1302.1506382528846 520.922302381174 1297.0102810370154 524.3674354088308Q1291.8972661467628 527.8125684364877 1285.7999275343227 533.1169796060547L1285.7999275343227 533.1169796060547L1285.7999275343227 607.5427899336903Q1285.7999275343227 610.4957611002535 1282.6555600884453 610.4957611002535L1282.6555600884453 610.4957611002535L1271.8279991443806 610.4957611002535ZM1444.0846505272257 597.8909489911277L1444.0846505272257 597.8909489911277Q1436.784249587667 604.9726113257559 1428.2261016697576 608.7185099351923Q1419.667953751848 612.4644085446289 1409.0317890870974 612.4644085446289L1409.0317890870974 612.4644085446289Q1393.6927444163393 612.4644085446289 1384.9158578934994 604.5898187671273Q1376.1663136962752 596.7152289896258 1376.1663136962752 583.9190206011858L1376.1663136962752 583.9190206011858Q1376.1663136962752 573.4742522157499 1382.0722560294016 565.9004280200279Q1387.9781983625276 558.326603824306 1399.5986867494657 553.8971470744614Q1411.1918328107872 549.4676903246168 1428.1440746929084 548.4833666024292L1428.1440746929084 548.4833666024292L1443.483119363667 547.3076466009272Q1444.6588393651687 547.1162503216129 1445.6431630873562 546.5147191580538Q1446.6274868095438 545.9131879944946 1446.6274868095438 544.3546754343641L1446.6274868095438 544.3546754343641L1446.6274868095438 539.0229219391808Q1446.6274868095438 528.4140996000469 1440.0379863360095 522.2073916851411Q1433.4484858624755 516.0006837702355 1422.2381323597824 516.0006837702355L1422.2381323597824 516.0006837702355Q1413.5706151394074 516.0006837702355 1406.5709797816285 519.9379786589863Q1399.5986867494657 523.8752735477369 1394.0755369749681 531.7498633252385L1394.0755369749681 531.7498633252385Q1393.2826095320947 532.7341870474262 1392.790447671001 533.0349526292057Q1392.2982858099072 533.3357182109853 1391.122565808405 532.9255833267405L1391.122565808405 532.9255833267405L1380.4864011436548 529.3984233222345Q1379.9122123057118 528.9882884379897 1379.6114467239322 528.4140996000469Q1379.3106811421526 527.8125684364877 1380.103608585026 526.2267135507409L1380.103608585026 526.2267135507409Q1386.0095509181524 516.0006837702355 1396.7277425597513 510.0947414371094Q1407.4732765269669 504.1887991039833 1423.0037174770396 504.1887991039833L1423.0037174770396 504.1887991039833Q1436.210060749724 504.1887991039833 1444.9596049469483 508.2354632951993Q1453.7364914697882 512.254785160799 1458.1659482196328 519.8286093565209Q1462.5954049694774 527.4297758778591 1462.5954049694774 537.8472019376788L1462.5954049694774 537.8472019376788L1462.5954049694774 607.5427899336903Q1462.5954049694774 609.3200410987515 1461.9938738059182 609.8942299366943Q1461.3923426423594 610.4957611002535 1460.025226361543 610.4957611002535L1460.025226361543 610.4957611002535L1449.990592860352 610.4957611002535Q1448.5961342539194 610.4957611002535 1448.0219454159765 609.6208066805311Q1447.4204142524172 608.7185099351923 1447.229017973103 607.3513936543761L1447.229017973103 607.3513936543761L1447.0376216937889 598.3010838753726Q1446.4360905302296 595.5395089881238 1444.0846505272257 597.8909489911277L1444.0846505272257 597.8909489911277ZM1446.6274868095438 560.4866475479957L1446.6274868095438 560.4866475479957Q1446.6274868095438 557.150883822804 1443.8932542479115 557.3422801021184L1443.8932542479115 557.3422801021184L1430.8783072545411 558.5180001036204Q1421.8279974755374 558.9281349878652 1414.7463351409092 560.7874131297752Q1407.6646728062815 562.6466912716853 1402.7430541953431 565.5996624382483Q1397.8214355844043 568.5526336048115 1395.25125697647 572.5992977960275Q1392.7084206941518 576.6459619872435 1392.7084206941518 581.9503731568104L1392.7084206941518 581.9503731568104Q1392.7084206941518 590.6178903771854 1398.696390004127 595.4301396856586Q1404.7117016397183 600.269731319748 1414.9377314202238 600.269731319748L1414.9377314202238 600.269731319748Q1421.2538086375948 600.269731319748 1427.0503816682553 598.000318293593Q1432.8469546989163 595.7309052674382 1437.1943844719121 592.176402937316L1437.1943844719121 592.176402937316Q1441.7058681986055 588.4578466534958 1444.1666775040749 584.520551764745Q1446.6274868095438 580.5832568759943 1446.6274868095438 576.8373582665579L1446.6274868095438 576.8373582665579L1446.6274868095438 560.4866475479957ZM1494.6679529174262 610.4957611002535L1494.6679529174262 610.4957611002535Q1491.9063780301776 610.4957611002535 1491.9063780301776 607.9255824923189L1491.9063780301776 607.9255824923189L1491.9063780301776 508.72762515629313Q1491.9063780301776 506.1574465483586 1494.0937640794837 506.1574465483586L1494.0937640794837 506.1574465483586L1505.9056487457356 506.1574465483586Q1508.0656924694254 506.1574465483586 1508.0656924694254 508.3174902720483L1508.0656924694254 508.3174902720483L1508.0656924694254 519.746582379672Q1508.0656924694254 520.7309061018597 1508.4484850280542 520.922302381174Q1508.8586199122988 521.1136986604881 1509.8429436344863 520.3207712176147L1509.8429436344863 520.3207712176147Q1516.3230748055553 515.2077563273621 1521.928251556902 511.5712270203909Q1527.560770633865 507.9346977134197 1533.466712966991 506.04807724589335Q1539.372655300117 504.1887991039833 1546.0441827505 504.1887991039833L1546.0441827505 504.1887991039833Q1561.410569746875 504.1887991039833 1569.5859251061556 512.4461814401134Q1577.7612804654368 520.7309061018597 1577.7612804654368 533.9099070489281L1577.7612804654368 533.9099070489281L1577.7612804654368 607.3513936543761Q1577.7612804654368 610.4957611002535 1574.8083092988736 610.4957611002535L1574.8083092988736 610.4957611002535L1563.7620097498789 610.4957611002535Q1562.3948934690625 610.4957611002535 1561.7933623055033 609.8122029598453Q1561.2191734675607 609.1286448194371 1561.2191734675607 607.9255824923189L1561.2191734675607 607.9255824923189L1561.2191734675607 537.6558056583647Q1561.2191734675607 528.003964715802 1556.297554856622 522.5901842437697Q1551.3759362456835 517.1764037717375 1540.7397715809334 517.1764037717375L1540.7397715809334 517.1764037717375Q1535.0252255271216 517.1764037717375 1530.021579939334 519.0630242392639Q1524.9905920259303 520.922302381174 1519.8775771356777 524.3674354088308Q1514.7645622454247 527.8125684364877 1508.4484850280542 533.1169796060547L1508.4484850280542 533.1169796060547L1508.4484850280542 607.5427899336903Q1508.4484850280542 610.4957611002535 1505.495513861491 610.4957611002535L1505.495513861491 610.4957611002535L1494.6679529174262 610.4957611002535ZM1708.2662006321543 462.4644102134719L1708.2662006321543 462.4644102134719Q1718.109437854031 462.4644102134719 1727.2691169354998 465.6908046361982Q1736.4287960169686 468.9445413845408 1743.701854630911 474.4676911590384Q1751.0022555704695 479.96349860791963 1755.7051355764775 487.26389954747833Q1760.4353579081017 494.53695816142067 1761.6110779096034 502.821682823167L1761.6110779096034 502.821682823167Q1762.0212127938485 504.5715916626118 1761.7204472120688 505.1731228261709Q1761.4196816302892 505.7746539897301 1760.2439616287875 505.7746539897301L1760.2439616287875 505.7746539897301L1745.479105795972 506.9503739912321Q1744.4947820737843 507.1417702705463 1744.111989515156 506.54023910698714Q1743.701854630911 505.9660502690444 1743.5104583515968 504.9817265468567L1743.5104583515968 504.9817265468567Q1740.7488834643477 492.37691443773105 1731.589204382879 484.6116939626948Q1722.456867627027 476.8191311620423 1708.8677317957136 476.8191311620423L1708.8677317957136 476.8191311620423Q1688.3883299090862 476.8191311620423 1677.3693726857073 491.99412187910247Q1666.3504154623288 507.1417702705463 1666.3504154623288 537.6558056583647L1666.3504154623288 537.6558056583647Q1666.3504154623288 567.1855173239951 1677.177976406393 582.333165715439Q1688.0055373504579 597.5081564324992 1709.8520555179011 597.5081564324992L1709.8520555179011 597.5081564324992Q1723.8239839078428 597.5081564324992 1733.1750592686262 590.8092866564996Q1742.5261346294092 584.1104168805002 1748.240680683221 569.3455610476849L1748.240680683221 569.3455610476849Q1748.814869521164 568.1698410461829 1750.592120686225 568.5526336048115L1750.592120686225 568.5526336048115L1762.2126090731626 571.3142084920603Q1762.8141402367219 571.5056047713745 1763.1969327953507 572.1071359349337Q1763.579725353979 572.7086670984927 1763.1969327953507 574.0757833793091L1763.1969327953507 574.0757833793091Q1761.6110779096034 579.7903294331209 1758.3846834868773 585.2861368820022Q1755.1309467385345 590.8092866564996 1750.4007244069107 595.6215359649727Q1745.670502075286 600.4611275990624 1739.3817671835318 604.2890531853477Q1733.0656899661608 608.1443210972495 1725.4918657704388 610.3043648209391Q1717.9180415747169 612.4644085446289 1709.0591280750277 612.4644085446289L1709.0591280750277 612.4644085446289Q1689.5640499105884 612.4644085446289 1675.4827522181808 603.4140987656253Q1661.42879685139 594.3637889866218 1654.0463689349826 577.4115471045006Q1646.6639410185749 560.4866475479957 1646.6639410185749 537.2730130997361L1646.6639410185749 537.2730130997361Q1646.6639410185749 514.0320363258602 1654.0463689349826 497.18916374620414Q1661.42879685139 480.3736334921645 1675.2913559388667 471.40535069001004Q1689.1812573519596 462.4644102134719 1708.2662006321543 462.4644102134719L1708.2662006321543 462.4644102134719ZM1848.2315654621202 597.8909489911277L1848.2315654621202 597.8909489911277Q1840.9585068481779 604.9726113257559 1832.4003589302683 608.7185099351923Q1823.8422110123583 612.4644085446289 1813.2060463476082 612.4644085446289L1813.2060463476082 612.4644085446289Q1797.8396593512339 612.4644085446289 1789.0901151540097 604.5898187671273Q1780.3132286311697 596.7152289896258 1780.3132286311697 583.9190206011858L1780.3132286311697 583.9190206011858Q1780.3132286311697 573.4742522157499 1786.2191709642957 565.9004280200279Q1792.125113297422 558.326603824306 1803.7456016843598 553.8971470744614Q1815.366090071298 549.4676903246168 1832.290989627803 548.4833666024292L1832.290989627803 548.4833666024292L1847.6573766241772 547.3076466009272Q1848.8330966256794 547.1162503216129 1849.817420347867 546.5147191580538Q1850.8017440700546 545.9131879944946 1850.8017440700546 544.3546754343641L1850.8017440700546 544.3546754343641L1850.8017440700546 539.0229219391808Q1850.8017440700546 528.4140996000469 1844.2122435965202 522.2073916851411Q1837.6227431229863 516.0006837702355 1826.3850472946765 516.0006837702355L1826.3850472946765 516.0006837702355Q1817.717530074302 516.0006837702355 1810.7452370421393 519.9379786589863Q1803.7456016843598 523.8752735477369 1798.249794235479 531.7498633252385L1798.249794235479 531.7498633252385Q1797.456866792605 532.7341870474262 1796.9647049315113 533.0349526292057Q1796.4725430704175 533.3357182109853 1795.2968230689157 532.9255833267405L1795.2968230689157 532.9255833267405L1784.6606584041651 529.3984233222345Q1784.0591272406064 528.9882884379897 1783.7583616588263 528.4140996000469Q1783.4849384026634 527.8125684364877 1784.2505235199205 526.2267135507409L1784.2505235199205 526.2267135507409Q1790.1564658530465 516.0006837702355 1800.901999820262 510.0947414371094Q1811.6201914618614 504.1887991039833 1827.17797473755 504.1887991039833L1827.17797473755 504.1887991039833Q1840.3569756846186 504.1887991039833 1849.1338622074586 508.2354632951993Q1857.8834064046828 512.254785160799 1862.3128631545273 519.8286093565209Q1866.742319904372 527.4297758778591 1866.742319904372 537.8472019376788L1866.742319904372 537.8472019376788L1866.742319904372 607.5427899336903Q1866.742319904372 609.3200410987515 1866.168131066429 609.8942299366943Q1865.5665999028697 610.4957611002535 1864.1994836220538 610.4957611002535L1864.1994836220538 610.4957611002535L1854.1375077952462 610.4957611002535Q1852.7703915144302 610.4957611002535 1852.168860350871 609.6208066805311Q1851.594671512928 608.7185099351923 1851.4032752336138 607.3513936543761L1851.4032752336138 607.3513936543761L1851.1845366286834 598.3010838753726Q1850.6103477907404 595.5395089881238 1848.2315654621202 597.8909489911277L1848.2315654621202 597.8909489911277ZM1850.8017440700546 560.4866475479957L1850.8017440700546 560.4866475479957Q1850.8017440700546 557.150883822804 1848.0401691828056 557.3422801021184L1848.0401691828056 557.3422801021184L1835.0525645150515 558.5180001036204Q1826.0022547360481 558.9281349878652 1818.92059240142 560.7874131297752Q1811.8115877411756 562.6466912716853 1806.8899691302372 565.5996624382483Q1801.9683505192988 568.5526336048115 1799.4255142369807 572.5992977960275Q1796.8553356290463 576.6459619872435 1796.8553356290463 581.9503731568104L1796.8553356290463 581.9503731568104Q1796.8553356290463 590.6178903771854 1802.8706472646377 595.4301396856586Q1808.8586165746128 600.269731319748 1819.1119886807346 600.269731319748L1819.1119886807346 600.269731319748Q1825.400723572489 600.269731319748 1831.2246389287661 598.000318293593Q1837.021211959427 595.7309052674382 1841.3412994068062 592.176402937316L1841.3412994068062 592.176402937316Q1845.8801254591162 588.4578466534958 1848.3409347645852 584.520551764745Q1850.8017440700546 580.5832568759943 1850.8017440700546 576.8373582665579L1850.8017440700546 576.8373582665579L1850.8017440700546 560.4866475479957ZM1898.842210177937 610.4957611002535L1898.842210177937 610.4957611002535Q1897.4477515715043 610.4957611002535 1896.7641934310964 609.8122029598453Q1896.0806352906884 609.1286448194371 1896.0806352906884 607.9255824923189L1896.0806352906884 607.9255824923189L1896.0806352906884 508.72762515629313Q1896.0806352906884 506.1574465483586 1898.2406790143777 506.1574465483586L1898.2406790143777 506.1574465483586L1909.6697711220013 506.1574465483586Q1911.829814845691 506.1574465483586 1911.829814845691 508.3174902720483L1911.829814845691 508.3174902720483L1911.829814845691 521.1136986604881Q1911.829814845691 522.2894186619901 1912.4313460092503 522.5081572669208Q1913.0055348471928 522.699553546235 1913.9898585693809 521.7152298240474L1913.9898585693809 521.7152298240474Q1919.1028734596334 515.617891211607 1924.1338613730372 511.7626232997052Q1929.164849286441 507.9346977134197 1934.2778641766936 506.04807724589335Q1939.3908790669466 504.1887991039833 1944.5038939571991 504.1887991039833L1944.5038939571991 504.1887991039833Q1951.3941600125127 504.1887991039833 1951.3941600125127 506.7589777119178L1951.3941600125127 506.7589777119178L1951.3941600125127 518.57086237817Q1951.3941600125127 520.5395098225454 1949.6169088474521 520.1293749383005L1949.6169088474521 520.1293749383005Q1947.867000008007 519.9379786589863 1945.5975869818521 519.746582379672Q1943.328173955697 519.5551861003578 1940.7579953477625 519.5551861003578L1940.7579953477625 519.5551861003578Q1936.4379079003834 519.5551861003578 1931.516289289445 521.4144642422677Q1926.5946706785066 523.2737423841779 1922.3566102079762 526.6368484349857Q1918.1185497374458 529.9726121601774 1915.3843171758135 534.1013033282425Q1912.6227422885645 538.2573368219237 1912.6227422885645 542.3860279899887L1912.6227422885645 542.3860279899887L1912.6227422885645 607.5427899336903Q1912.6227422885645 610.4957611002535 1909.6697711220013 610.4957611002535L1909.6697711220013 610.4957611002535L1898.842210177937 610.4957611002535ZM2056.334005727967 506.1574465483586L2056.334005727967 506.1574465483586Q2057.701122008783 506.1574465483586 2058.302653172342 507.032400968081Q2058.8768420102847 507.9346977134197 2058.302653172342 509.1104177149217L2058.302653172342 509.1104177149217L2018.3281731212755 607.5427899336903Q2017.343849399088 610.4957611002535 2013.8166893945822 610.4957611002535L2013.8166893945822 610.4957611002535L2006.7076847343378 610.4957611002535Q2002.9891284505175 610.4957611002535 2001.7860661233995 607.7341862130047L2001.7860661233995 607.7341862130047L1962.0303246772633 509.1104177149217Q1961.6475321186344 507.9346977134197 1962.2217209565774 507.032400968081Q1962.8232521201367 506.1574465483586 1964.1903684009526 506.1574465483586L1964.1903684009526 506.1574465483586L1976.41238795145 506.1574465483586Q1977.5881079529518 506.1574465483586 1978.3810353958252 506.64960840945247Q1979.1466205130823 507.1417702705463 1979.5567553973274 508.3174902720483L1979.5567553973274 508.3174902720483L2010.453583343774 585.696271766247Q2011.8480419502066 589.4421703756834 2013.5979507896513 585.5048754869326L2013.5979507896513 585.5048754869326L2044.3307247824005 508.3174902720483Q2044.7135173410288 507.1417702705463 2045.3970754814368 506.64960840945247Q2046.0806336218452 506.1574465483586 2047.2836959489632 506.1574465483586L2047.2836959489632 506.1574465483586L2056.334005727967 506.1574465483586ZM2136.6384160631123 597.8909489911277L2136.6384160631123 597.8909489911277Q2129.36535744917 604.9726113257559 2120.80720953126 608.7185099351923Q2112.2490616133505 612.4644085446289 2101.6128969486003 612.4644085446289L2101.6128969486003 612.4644085446289Q2086.246509952226 612.4644085446289 2077.496965755002 604.5898187671273Q2068.720079232162 596.7152289896258 2068.720079232162 583.9190206011858L2068.720079232162 583.9190206011858Q2068.720079232162 573.4742522157499 2074.626021565288 565.9004280200279Q2080.5319638984142 558.326603824306 2092.152452285352 553.8971470744614Q2103.77294067229 549.4676903246168 2120.697840228795 548.4833666024292L2120.697840228795 548.4833666024292L2136.0642272251694 547.3076466009272Q2137.2399472266716 547.1162503216129 2138.224270948859 546.5147191580538Q2139.2085946710467 545.9131879944946 2139.2085946710467 544.3546754343641L2139.2085946710467 544.3546754343641L2139.2085946710467 539.0229219391808Q2139.2085946710467 528.4140996000469 2132.6190941975124 522.2073916851411Q2126.0295937239785 516.0006837702355 2114.7918978956686 516.0006837702355L2114.7918978956686 516.0006837702355Q2106.1243806752937 516.0006837702355 2099.1520876431314 519.9379786589863Q2092.152452285352 523.8752735477369 2086.656644836471 531.7498633252385L2086.656644836471 531.7498633252385Q2085.8637173935977 532.7341870474262 2085.3715555325034 533.0349526292057Q2084.8793936714096 533.3357182109853 2083.703673669908 532.9255833267405L2083.703673669908 532.9255833267405L2073.0675090051573 529.3984233222345Q2072.465977841598 528.9882884379897 2072.165212259819 528.4140996000469Q2071.8917890036555 527.8125684364877 2072.6573741209127 526.2267135507409L2072.6573741209127 526.2267135507409Q2078.5633164540386 516.0006837702355 2089.308850421254 510.0947414371094Q2100.0270420628535 504.1887991039833 2115.5848253385425 504.1887991039833L2115.5848253385425 504.1887991039833Q2128.763826285611 504.1887991039833 2137.5407128084507 508.2354632951993Q2146.290257005675 512.254785160799 2150.7197137555195 519.8286093565209Q2155.149170505364 527.4297758778591 2155.149170505364 537.8472019376788L2155.149170505364 537.8472019376788L2155.149170505364 607.5427899336903Q2155.149170505364 609.3200410987515 2154.574981667421 609.8942299366943Q2153.973450503862 610.4957611002535 2152.606334223046 610.4957611002535L2152.606334223046 610.4957611002535L2142.5443583962383 610.4957611002535Q2141.1772421154224 610.4957611002535 2140.575710951863 609.6208066805311Q2140.00152211392 608.7185099351923 2139.810125834606 607.3513936543761L2139.810125834606 607.3513936543761L2139.591387229675 598.3010838753726Q2139.0171983917326 595.5395089881238 2136.6384160631123 597.8909489911277L2136.6384160631123 597.8909489911277ZM2139.2085946710467 560.4866475479957L2139.2085946710467 560.4866475479957Q2139.2085946710467 557.150883822804 2136.447019783798 557.3422801021184L2136.447019783798 557.3422801021184L2123.4594151160436 558.5180001036204Q2114.4091053370403 558.9281349878652 2107.327443002412 560.7874131297752Q2100.2184383421677 562.6466912716853 2095.2968197312293 565.5996624382483Q2090.375201120291 568.5526336048115 2087.832364837973 572.5992977960275Q2085.2621862300384 576.6459619872435 2085.2621862300384 581.9503731568104L2085.2621862300384 581.9503731568104Q2085.2621862300384 590.6178903771854 2091.27749786563 595.4301396856586Q2097.265467175605 600.269731319748 2107.5188392817267 600.269731319748L2107.5188392817267 600.269731319748Q2113.807574173481 600.269731319748 2119.6314895297583 598.000318293593Q2125.428062560419 595.7309052674382 2129.7481500077984 592.176402937316L2129.7481500077984 592.176402937316Q2134.2869760601084 588.4578466534958 2136.747785365578 584.520551764745Q2139.2085946710467 580.5832568759943 2139.2085946710467 576.8373582665579L2139.2085946710467 576.8373582665579L2139.2085946710467 560.4866475479957ZM2201.220989168871 466.97589394016546L2201.220989168871 607.1599973750617Q2201.220989168871 609.1286448194371 2200.428061725998 609.8122029598453Q2199.635134283124 610.4957611002535 2197.666486838749 610.4957611002535L2197.666486838749 610.4957611002535L2187.4404570582433 610.4957611002535Q2184.4874858916805 610.4957611002535 2184.4874858916805 607.7341862130047L2184.4874858916805 607.7341862130047L2184.6788821709947 467.16729021947975Q2184.6788821709947 464.43305765784726 2187.057664499615 464.43305765784726L2187.057664499615 464.43305765784726L2198.869549165867 464.43305765784726Q2201.220989168871 464.43305765784726 2201.220989168871 466.97589394016546L2201.220989168871 466.97589394016546ZM2234.305203164624 610.4957611002535L2234.305203164624 610.4957611002535Q2231.735024556689 610.4957611002535 2231.735024556689 607.9255824923189L2231.735024556689 607.9255824923189L2231.735024556689 466.97589394016546Q2231.735024556689 464.43305765784726 2233.8950682803793 464.43305765784726L2233.8950682803793 464.43305765784726L2245.515556667317 464.43305765784726Q2247.675600391007 464.43305765784726 2247.675600391007 466.7844976608512L2247.675600391007 466.7844976608512L2247.675600391007 519.3364474954271Q2247.675600391007 520.3207712176147 2248.0857352752514 520.5395098225454Q2248.4685278338798 520.7309061018597 2249.452851556068 519.9379786589863L2249.452851556068 519.9379786589863Q2256.3431176113813 514.6335674894192 2262.1396906420423 511.07906515929704Q2267.9636059983195 507.5245628291749 2273.5687827496663 505.85668096657906Q2279.1739595010126 504.1887991039833 2285.872829277012 504.1887991039833L2285.872829277012 504.1887991039833Q2301.239216273387 504.1887991039833 2309.305202330202 512.3641544632644Q2317.371188387018 520.5395098225454 2317.371188387018 534.1013033282425L2317.371188387018 534.1013033282425L2317.371188387018 607.3513936543761Q2317.371188387018 610.4957611002535 2314.418217220455 610.4957611002535L2314.418217220455 610.4957611002535L2303.399259997076 610.4957611002535Q2302.0048013906435 610.4957611002535 2301.430612552701 609.8122029598453Q2300.8290813891413 609.1286448194371 2300.8290813891413 607.9255824923189L2300.8290813891413 607.9255824923189L2300.8290813891413 537.6558056583647Q2300.8290813891413 528.003964715802 2295.907462778203 522.5901842437697Q2290.985844167265 517.1764037717375 2280.3496795025144 517.1764037717375L2280.3496795025144 517.1764037717375Q2274.662475774319 517.1764037717375 2269.631487860915 519.0630242392639Q2264.6004999475113 520.922302381174 2259.4874850572587 524.3674354088308Q2254.3744701670057 527.8125684364877 2248.277131554566 533.1169796060547L2248.277131554566 533.1169796060547L2248.277131554566 607.5427899336903Q2248.277131554566 610.4957611002535 2245.132764108688 610.4957611002535L2245.132764108688 610.4957611002535L2234.305203164624 610.4957611002535ZM2390.2111438289066 612.4644085446289L2390.2111438289066 612.4644085446289Q2375.4462879960915 612.4644085446289 2364.126565190933 605.6835117917803Q2352.8068423857744 598.8752727133156 2346.600134470869 586.7626224652836Q2340.3934265559633 574.6773145428681 2340.3934265559633 558.9281349878652L2340.3934265559633 558.9281349878652Q2340.3934265559633 542.577424269303 2346.7915307501835 530.2733777419569Q2353.189634944403 517.9693312146109 2364.4273307727126 511.07906515929704Q2375.6376842754057 504.1887991039833 2390.402540108221 504.1887991039833L2390.402540108221 504.1887991039833Q2405.3587922203506 504.1887991039833 2416.487118746195 511.18843446176237Q2427.615445272039 518.1607274939252 2433.822153186945 530.4647740212713Q2440.0288611018505 542.7688205486173 2440.0288611018505 558.7093963829345L2440.0288611018505 558.7093963829345Q2440.0288611018505 574.4585759379377 2433.712783884479 586.5712261859694Q2427.4240489927247 598.6838764340011 2416.2957224668803 605.5741424893149Q2405.1673959410364 612.4644085446289 2390.2111438289066 612.4644085446289L2390.2111438289066 612.4644085446289ZM2390.5939363875355 600.0509927148173L2390.5939363875355 600.0509927148173Q2400.847308493657 600.0509927148173 2408.120367107599 595.04734712703Q2415.420768047158 590.0163592136262 2419.2486936334435 580.6652838528432Q2423.076619219729 571.3142084920603 2423.076619219729 558.326603824306L2423.076619219729 558.326603824306Q2423.076619219729 545.3389991565518 2419.1393243309785 535.9879237957689Q2415.2020294422273 526.6368484349857 2407.9289708282854 521.5238335447331Q2400.6559122143426 516.383476328864 2390.402540108221 516.383476328864L2390.402540108221 516.383476328864Q2380.36790660703 516.383476328864 2372.8761093881567 521.5238335447331Q2365.4116544949 526.6368484349857 2361.3649903036844 535.9879237957689Q2357.3456684380844 545.3389991565518 2357.3456684380844 558.326603824306L2357.3456684380844 558.326603824306Q2357.3456684380844 571.1228122127459 2361.3649903036844 580.5832568759943Q2365.4116544949 590.0163592136262 2372.8761093881567 595.04734712703Q2380.36790660703 600.0509927148173 2390.5939363875355 600.0509927148173L2390.5939363875355 600.0509927148173Z " fill="black" transform="matrix(0.35860232737799164,0,0,0.35860232737799164,0,107.26400235488454)"/></g></svg>